name C:\Users\u0101727\Documents\MyRepositories\upper-imu-dc\Results\main_tracking\Case_10\FLX01_angularVelocities_groundFrame.mot
datacolumns 4
datarows 82
range 0.51000000 1.32000000
endheader 
time	radius_imu_x	radius_imu_y	radius_imu_z	
          0.51000000	         -0.13742064	          1.63734168	         -0.14198551	
          0.52000000	         -0.21365963	          1.61334064	         -0.12508704	
          0.53000000	         -0.25805443	          1.61404645	         -0.11568065	
          0.54000000	         -0.27089642	          1.58874564	         -0.10163449	
          0.55000000	         -0.26049002	          1.52737161	         -0.07690564	
          0.56000000	         -0.24078209	          1.46424654	         -0.05367380	
          0.57000000	         -0.20602663	          1.29116518	          0.01764269	
          0.58000000	         -0.16306995	          1.04028347	          0.11869938	
          0.59000000	         -0.12128007	          0.77044573	          0.22930806	
          0.60000000	         -0.08174348	          0.49833540	          0.34078805	
          0.61000000	         -0.04328438	          0.21990882	          0.45234656	
          0.62000000	         -0.00426644	         -0.07403669	          0.56620367	
          0.63000000	          0.03571117	         -0.38504123	          0.68344957	
          0.64000000	          0.07482869	         -0.70086213	          0.80165964	
          0.65000000	          0.10885533	         -0.99614334	          0.91442369	
          0.66000000	          0.13198368	         -1.23950998	          1.01279647	
          0.67000000	          0.13840170	         -1.40371314	          1.08787126	
          0.68000000	          0.12396687	         -1.47437391	          1.13335445	
          0.69000000	          0.08731699	         -1.45388597	          1.14717943	
          0.70000000	          0.03004640	         -1.35948344	          1.13167915	
          0.71000000	         -0.04397662	         -1.21719290	          1.09250203	
          0.72000000	         -0.12974199	         -1.05475450	          1.03692392	
          0.73000000	         -0.22222277	         -0.89605242	          0.97223109	
          0.74000000	         -0.31718076	         -0.75820027	          0.90460975	
          0.75000000	         -0.41153525	         -0.65118681	          0.83869191	
          0.76000000	         -0.50334723	         -0.57922082	          0.77764647	
          0.77000000	         -0.59155519	         -0.54275243	          0.72355322	
          0.78000000	         -0.67559052	         -0.54046945	          0.67781476	
          0.79000000	         -0.75497789	         -0.57091224	          0.64146434	
          0.80000000	         -0.82902614	         -0.63348703	          0.61532144	
          0.81000000	         -0.89670191	         -0.72872955	          0.60001606	
          0.82000000	         -0.95673616	         -0.85778320	          0.59592943	
          0.83000000	         -1.00797392	         -1.02118024	          0.60306637	
          0.84000000	         -1.04990376	         -1.21725789	          0.62086595	
          0.85000000	         -1.08312550	         -1.44098602	          0.64807217	
          0.86000000	         -1.10935021	         -1.68420259	          0.68290447	
          0.87000000	         -1.13063368	         -1.93770648	          0.72367086	
          0.88000000	         -1.14795920	         -2.19455819	          0.76967077	
          0.89000000	         -1.15972002	         -2.45311244	          0.82198930	
          0.90000000	         -1.16080325	         -2.71830239	          0.88377875	
          0.91000000	         -1.14272934	         -3.00053167	          0.95985347	
          0.92000000	         -1.09489311	         -3.31255172	          1.05568580	
          0.93000000	         -1.00667550	         -3.66526639	          1.17601025	
          0.94000000	         -0.87010234	         -4.06344304	          1.32324967	
          0.95000000	         -0.68271586	         -4.50206559	          1.49597190	
          0.96000000	         -0.45026179	         -4.96392089	          1.68763190	
          0.97000000	         -0.18861241	         -5.41907810	          1.88589109	
          0.98000000	          0.07592106	         -5.82723163	          2.07313668	
          0.99000000	          0.30897694	         -6.14329639	          2.22789929	
          1.00000000	          0.47363659	         -6.32838459	          2.33112414	
          1.01000000	          0.53857290	         -6.35939914	          2.37066557	
          1.02000000	          0.48566629	         -6.23306546	          2.34098738	
          1.03000000	          0.31425067	         -5.96761903	          2.24543953	
          1.04000000	          0.04130595	         -5.59981417	          2.09718827	
          1.05000000	         -0.30168836	         -5.17766316	          1.91685818	
          1.06000000	         -0.67350691	         -4.75250817	          1.72935855	
          1.07000000	         -1.02898042	         -4.37158201	          1.56068774	
          1.08000000	         -1.32536323	         -4.06997397	          1.43188062	
          1.09000000	         -1.53002404	         -3.86332941	          1.35133607	
          1.10000000	         -1.62611614	         -3.74969081	          1.32065993	
          1.11000000	         -1.61644754	         -3.71041155	          1.33541781	
          1.12000000	         -1.52339949	         -3.71191720	          1.38140809	
          1.13000000	         -1.38249309	         -3.71472175	          1.43976189	
          1.14000000	         -1.23292585	         -3.68267165	          1.49170981	
          1.15000000	         -1.10728954	         -3.59065069	          1.52317787	
          1.16000000	         -1.02374400	         -3.42849328	          1.52759118	
          1.17000000	         -0.98237690	         -3.20083542	          1.50657274	
          1.18000000	         -0.96651382	         -2.92348826	          1.46852690	
          1.19000000	         -0.94860649	         -2.61756721	          1.42550005	
          1.20000000	         -0.89953800	         -2.30279314	          1.38894151	
          1.21000000	         -0.79843579	         -1.99209546	          1.36576243	
          1.22000000	         -0.64222074	         -1.68778672	          1.35482932	
          1.23000000	         -0.41379606	         -1.38604553	          1.34686491	
          1.24000000	         -0.20970045	         -1.07415194	          1.34120054	
          1.25000000	         -0.06770681	         -0.73630382	          1.32823540	
          1.26000000	          0.02456401	         -0.38697503	          1.31543735	
          1.27000000	          0.04053680	         -0.02791470	          1.28510740	
          1.28000000	          0.00422873	          0.30767784	          1.27992373	
          1.29000000	         -0.13781333	          0.63116628	          1.28846423	
          1.30000000	         -0.32624306	          0.91103754	          1.32291985	
          1.31000000	         -0.53562443	          1.14155685	          1.35967109	
          1.32000000	         -0.76175403	          1.32682516	          1.37995257	
